<?xml version="1.0" encoding="utf-8"?><!DOCTYPE svg PUBLIC "-//W3C//DTD SVG 1.1//EN" "http://www.w3.org/Graphics/SVG/1.1/DTD/svg11.dtd">

  <svg version="1.1" id="Contours" xmlns="http://www.w3.org/2000/svg" x="0px" y="0px" width="742.266235px" height="742.266235px" viewBox="0.000000 -0.000012 742.266235 782.885925" fill="#fff">

    <!-- outer line -->
    <path class="selected"  fill="none" opacity="1.0" stroke="#fff" stroke-linecap="square" stroke-width="15px"
     d="M50 0
     L675 0
     L675 650
     L50 650
     L50 0" />

    <!-- inner line -->
    <path class="selected"  fill="none" opacity="1.0" stroke="#0038ff" stroke-linecap="square" stroke-width="20px"
     d="M125 75
     L600 75
     L600 575
     L125 575
     L125 75" />

    <path class="selected"  fill="none" opacity="1.0" stroke="#fff" stroke-linecap="square" stroke-width="15px"
     	d="M231.900503 176.180854 C292.917749 176.098874 353.934995 176.016894 414.952241 175.934914 C416.000665 191.757764 416.252062 207.633398 415.705158 223.481510 C394.431226 223.866465 373.157294 224.251420 351.883362 224.636375 C351.516461 256.719317 351.680413 288.808329 352.375129 320.885847 C377.162633 292.483409 401.950138 264.080972 426.737643 235.678534 C430.768412 231.059930 435.556762 226.070822 441.686074 225.970133 C462.392592 225.629981 483.109353 225.913635 503.798796 226.820582 C472.094322 260.634189 440.389848 294.447795 408.685373 328.261402 C407.574985 329.445659 406.395538 330.794166 406.383957 332.417524 C406.372928 333.964023 407.428610 335.287335 408.429199 336.466571 C442.151074 376.209110 475.872947 415.951650 509.594820 455.694190 C489.679396 455.884421 469.763972 456.074651 449.848549 456.264881 C443.996912 456.320775 437.262187 455.972959 433.676282 451.348453 C407.215148 417.223216 380.099148 383.605774 352.348247 350.520871 C351.675970 385.425199 351.528427 420.339632 351.905684 455.248395 C334.075030 456.183845 316.207276 456.411905 298.358555 455.931859 C295.649714 378.933461 294.892351 301.866418 296.087437 224.829655 C274.922528 223.825487 253.721041 223.592488 232.539175 224.131273 C231.642363 208.166671 231.429212 192.163679 231.900503 176.180854 z">
    </path>

 </svg>
